{"glyphs":{"0":{"ha":1118,"x_min":0,"x_max":0,"o":""},"1":{"ha":524,"x_min":0,"x_max":0,"o":""},"2":{"ha":1005,"x_min":0,"x_max":0,"o":""},"3":{"ha":1041,"x_min":0,"x_max":0,"o":""},"4":{"ha":1087,"x_min":0,"x_max":0,"o":""},"5":{"ha":998,"x_min":0,"x_max":0,"o":""},"6":{"ha":1140,"x_min":0,"x_max":0,"o":""},"7":{"ha":994,"x_min":0,"x_max":0,"o":""},"8":{"ha":1030,"x_min":0,"x_max":0,"o":""},"9":{"ha":1140,"x_min":0,"x_max":0,"o":""},"\u0000":{"ha":0,"x_min":0,"x_max":0,"o":""}," ":{"ha":325,"x_min":0,"x_max":0,"o":""},"!":{"ha":380,"x_min":0,"x_max":0,"o":""},"\"":{"ha":560,"x_min":0,"x_max":0,"o":""},"#":{"ha":606,"x_min":0,"x_max":0,"o":""},"$":{"ha":736,"x_min":0,"x_max":0,"o":""},"%":{"ha":964,"x_min":0,"x_max":0,"o":""},"&":{"ha":1039,"x_min":0,"x_max":0,"o":""},"'":{"ha":382,"x_min":0,"x_max":0,"o":""},"(":{"ha":531,"x_min":0,"x_max":0,"o":""},")":{"ha":531,"x_min":0,"x_max":0,"o":""},"*":{"ha":203,"x_min":0,"x_max":0,"o":""},"+":{"ha":599,"x_min":0,"x_max":0,"o":""},",":{"ha":360,"x_min":0,"x_max":0,"o":""},"-":{"ha":599,"x_min":0,"x_max":0,"o":""},".":{"ha":352,"x_min":1,"x_max":150,"o":"m 76 135 q 23 113 45 135 q 1 61 1 92 q 23 8 1 30 q 76 -14 45 -14 q 128 8 106 -14 q 150 61 150 30 q 128 113 150 92 q 76 135 106 135 z "},"/":{"ha":576,"x_min":0,"x_max":0,"o":""},":":{"ha":352,"x_min":0,"x_max":0,"o":""},";":{"ha":360,"x_min":0,"x_max":0,"o":""},"<":{"ha":203,"x_min":0,"x_max":0,"o":""},"=":{"ha":599,"x_min":0,"x_max":0,"o":""},">":{"ha":203,"x_min":0,"x_max":0,"o":""},"?":{"ha":881,"x_min":-12,"x_max":666,"o":"m 538 1076 q 323 1136 448 1145 q 122 1063 211 1127 q 18 934 48 1009 q 7 779 -12 860 q 0 734 14 749 l 37 747 q 51 713 37 728 q 85 696 64 698 q 123 709 106 694 q 142 745 140 723 q 142 755 142 749 q 107 733 133 731 q 91 738 98 734 q 85 742 88 740 l 82 746 q 106 748 94 741 q 119 766 117 755 q 117 778 119 772 l 161 794 q 125 816 135 791 q 141 903 113 855 q 195 963 163 940 q 328 1012 252 1005 q 465 978 410 1019 q 521 899 503 949 q 532 797 539 849 q 482 709 525 747 q 370 637 452 682 l 357 630 l 347 625 l 335 618 q 311 604 322 610 q 261 568 283 586 q 186 454 204 517 q 224 304 163 366 q 309 257 259 270 q 408 258 359 245 q 440 273 423 262 q 477 310 463 288 q 486 459 517 370 l 486 458 l 485 456 q 483 456 485 455 q 441 399 473 425 q 376 372 410 376 q 326 383 347 368 q 309 429 302 400 q 352 486 314 458 q 385 506 366 495 q 401 514 391 509 l 409 518 l 416 522 l 429 529 l 446 538 l 464 549 q 500 570 484 559 q 568 621 540 595 q 654 780 641 688 q 635 946 666 865 q 538 1076 604 1027 m 340 135 q 287 113 309 135 q 265 61 265 92 q 287 8 265 30 q 340 -14 309 -14 q 392 8 370 -14 q 414 61 414 30 q 392 113 414 92 q 340 135 370 135 z "},"@":{"ha":203,"x_min":0,"x_max":0,"o":""},"A":{"ha":1448,"x_min":0,"x_max":1244,"o":"m 1093 131 q 911 553 1047 238 q 729 977 772 876 q 730 1085 699 1048 q 768 1107 746 1103 l 477 1107 q 515 1085 498 1103 q 515 977 546 1048 q 333 553 471 873 q 151 131 196 235 q 57 22 120 58 q 0 0 25 4 l 337 0 q 300 22 315 4 q 284 61 286 37 q 298 129 281 90 q 338 170 313 154 q 420 189 372 189 l 680 189 q 774 224 739 189 q 812 302 802 253 q 814 416 825 359 q 784 368 807 392 q 738 336 764 347 q 664 321 705 321 l 420 321 q 379 318 398 321 q 394 352 389 340 l 409 387 q 441 460 427 427 q 506 612 477 545 q 623 882 581 787 q 800 471 676 757 q 846 363 818 429 l 857 338 l 867 314 q 887 267 879 286 q 946 131 930 166 q 945 22 977 58 q 907 0 929 4 l 1244 0 q 1187 22 1219 4 q 1138 62 1160 38 q 1093 131 1110 91 z "},"B":{"ha":1164,"x_min":0,"x_max":960,"o":"m 838 323 l 838 320 l 838 317 q 788 183 838 231 q 669 129 745 143 q 621 123 645 125 q 606 123 612 123 q 602 123 604 123 l 600 123 l 599 123 l 227 123 q 227 554 227 125 l 227 985 l 549 985 q 739 924 683 985 q 774 854 766 895 q 778 828 778 841 q 778 820 779 824 l 778 818 l 778 817 l 778 814 l 778 812 q 730 684 778 729 l 719 674 q 672 648 699 659 q 648 640 662 644 l 623 632 q 529 586 559 612 q 455 456 465 529 q 454 411 452 433 l 455 404 q 456 398 456 401 l 457 396 l 457 395 l 457 394 l 457 395 q 458 397 458 396 q 459 397 459 397 q 588 490 500 471 q 747 471 671 509 q 799 433 778 456 q 834 361 825 404 q 838 334 838 347 q 838 326 838 330 l 838 323 m 769 581 q 776 585 769 582 q 783 587 780 586 q 791 591 787 589 q 837 625 817 604 q 901 806 901 688 l 901 810 l 901 816 q 901 832 901 823 q 895 880 900 856 q 831 1005 880 952 q 549 1107 739 1107 l 0 1107 q 47 1086 24 1104 q 95 977 95 1049 l 95 132 q 80 62 95 92 q 47 23 68 39 q 0 1 24 5 l 596 0 q 602 0 598 0 l 610 0 q 633 1 621 0 q 704 11 669 3 q 873 94 808 33 q 960 312 959 176 q 878 518 960 443 q 814 562 850 543 q 787 574 802 568 l 782 576 l 777 578 q 769 581 772 581 z "},"C":{"ha":1246,"x_min":-6,"x_max":1037,"o":"m 878 1058 l 874 1060 q 864 1065 869 1063 q 836 1080 850 1074 q 748 1114 793 1101 q 469 1126 612 1155 q 148 942 290 1101 q 0 557 -5 770 q 146 172 -6 345 q 465 -16 287 11 q 745 -5 608 -44 q 878 52 790 8 q 997 106 947 96 q 1025 109 1013 110 q 1032 108 1029 109 q 1036 107 1035 107 l 865 275 q 867 271 866 273 q 871 263 869 267 q 872 239 874 251 q 812 165 865 201 q 709 121 743 131 q 492 113 603 91 q 244 258 353 134 q 132 557 126 392 q 246 854 127 722 q 494 998 356 979 q 711 988 606 1020 q 779 962 746 978 q 800 951 789 957 q 808 946 804 949 l 811 945 l 814 943 q 861 871 853 915 q 863 842 864 856 q 859 827 861 830 l 1037 998 q 1034 996 1036 997 q 1027 996 1031 996 q 999 1000 1015 996 q 881 1056 950 1012 l 878 1058 z "},"D":{"ha":1245,"x_min":0,"x_max":1042,"o":"m 886 969 q 638 1094 788 1062 q 507 1107 563 1110 l 321 1107 l 322 1107 l 0 1107 q 47 1086 24 1104 q 80 1046 68 1069 q 95 977 95 1017 l 95 159 q 47 35 95 87 q 0 -3 24 9 q 113 16 57 -4 q 227 159 227 55 l 227 977 l 227 984 l 511 984 l 513 984 l 519 984 q 540 983 529 984 q 613 974 576 981 q 802 878 729 949 q 918 552 918 768 l 918 549 l 918 543 q 917 517 918 530 q 904 434 913 475 q 797 224 874 303 q 608 138 732 159 q 500 126 567 132 l 448 123 l 397 118 q 258 56 309 108 q 216 -99 200 -5 l 216 -98 q 322 -18 235 -45 q 396 -3 356 -8 q 461 1 431 1 q 886 139 748 -1 q 1023 404 985 241 q 1040 507 1036 455 q 1042 539 1041 524 q 1042 549 1042 545 l 1042 553 q 886 969 1042 822 z "},"E":{"ha":1052,"x_min":0,"x_max":844,"o":"m 0 1107 q 47 1085 24 1103 q 80 1046 68 1069 q 95 977 95 1016 l 95 131 q 47 22 95 58 q 0 0 24 4 l 844 0 l 844 227 q 821 179 840 203 q 782 146 806 158 q 713 132 752 132 l 231 132 l 231 427 q 242 451 235 439 q 265 478 252 467 q 363 511 302 511 l 623 511 q 718 546 683 511 q 756 624 745 574 q 759 737 768 680 q 728 690 751 713 q 608 642 683 642 l 363 642 q 265 620 302 642 q 242 601 252 612 q 231 585 235 593 l 231 976 l 705 976 q 813 928 777 976 q 835 881 831 905 l 835 1107 l 0 1107 z "},"F":{"ha":1052,"x_min":0,"x_max":848,"o":"m 0 1107 q 47 1085 24 1103 q 80 1046 68 1069 q 95 977 95 1016 l 95 131 q 47 22 95 58 q 0 0 24 4 l 326 0 q 279 22 302 4 q 231 131 231 58 l 231 396 q 242 420 235 408 q 265 448 252 435 q 363 480 302 480 l 623 480 q 718 515 683 480 q 756 593 745 543 q 759 706 768 650 q 728 659 751 682 q 608 611 683 611 l 363 611 q 265 589 302 611 q 242 570 252 581 q 231 554 235 563 l 231 976 l 718 976 q 787 961 758 976 q 827 928 810 949 q 848 881 845 905 l 848 1107 l 0 1107 z "},"G":{"ha":1251,"x_min":-6,"x_max":1037,"o":"m 1037 997 q 1034 996 1036 996 q 1027 995 1031 995 q 999 999 1015 995 q 881 1055 950 1011 l 878 1057 l 874 1059 q 864 1065 869 1063 q 836 1080 850 1073 q 748 1114 793 1100 q 469 1126 612 1154 q 148 941 290 1101 q 0 556 -5 769 q 146 171 -6 344 q 465 -16 287 10 q 745 -6 608 -45 q 832 27 790 7 q 861 42 846 34 q 871 47 865 44 l 875 50 l 878 52 q 991 104 943 93 q 1021 109 1008 109 q 1029 108 1025 109 q 1034 106 1032 108 l 1036 106 q 988 200 988 151 l 988 561 l 749 561 q 808 538 779 555 q 847 504 833 524 q 865 447 865 479 l 865 218 q 812 165 850 191 l 809 163 l 806 161 q 798 157 802 159 q 777 146 787 151 q 709 121 743 130 q 492 113 603 90 q 244 257 353 133 q 132 556 126 391 q 246 854 127 721 q 494 997 356 978 q 711 987 606 1019 q 779 962 746 977 q 800 950 789 956 q 808 945 804 948 l 811 944 l 814 943 q 861 871 853 914 q 863 841 864 855 q 859 826 861 829 l 1037 997 z "},"H":{"ha":1278,"x_min":0,"x_max":1074,"o":"m 753 1107 q 801 1085 777 1103 q 848 977 848 1048 l 848 658 q 823 618 839 633 q 772 599 802 599 l 308 599 q 250 581 272 599 q 235 564 241 573 q 227 547 229 556 l 227 977 q 273 1085 227 1048 q 321 1107 297 1103 l 0 1107 q 47 1085 24 1103 q 80 1046 68 1069 q 95 977 95 1016 l 95 131 q 47 22 95 58 q 0 0 24 4 l 321 0 q 273 22 297 4 q 227 131 227 58 l 227 393 q 235 416 230 406 q 250 441 241 430 q 308 467 273 467 l 772 467 q 823 481 802 467 q 848 508 839 491 l 848 131 q 833 62 848 91 q 801 22 822 38 q 753 0 777 4 l 1074 0 q 1027 22 1050 4 q 980 131 980 58 l 980 977 q 1027 1085 980 1048 q 1074 1107 1050 1103 l 753 1107 z "},"I":{"ha":524,"x_min":0,"x_max":321,"o":"m 0 1107 q 47 1085 24 1103 q 80 1046 68 1069 q 95 977 95 1016 l 95 131 q 47 22 95 58 q 0 0 24 4 l 321 0 q 273 22 297 4 q 227 131 227 58 l 227 977 q 273 1085 227 1048 q 321 1107 297 1103 l 0 1107 z "},"J":{"ha":1039,"x_min":11,"x_max":835,"o":"m 610 378 q 523 180 610 262 q 313 97 436 97 q 257 102 286 97 q 252 104 254 103 q 245 106 248 104 q 227 113 235 109 q 186 136 202 122 q 161 235 136 175 l 11 93 q 313 -26 136 -26 q 615 93 490 -26 q 741 378 741 212 l 741 976 q 787 1084 741 1048 q 835 1107 811 1103 l 523 1107 q 559 1093 539 1104 q 610 1025 597 1069 l 610 378 z "},"K":{"ha":1254,"x_min":0,"x_max":1050,"o":"m 0 1107 q 47 1085 24 1103 q 80 1046 68 1069 q 95 977 95 1016 l 95 131 q 47 22 95 58 q 0 0 24 4 l 321 0 q 273 22 297 4 q 227 131 227 58 l 227 977 q 273 1085 227 1048 q 321 1107 297 1103 l 0 1107 m 766 1107 q 785 1071 784 1103 q 703 868 786 1007 q 422 608 595 690 q 362 522 367 582 q 397 420 357 465 q 398 420 397 420 l 399 419 l 399 419 q 434 498 394 466 q 504 522 463 522 q 766 138 581 522 q 791 20 808 55 q 766 0 783 1 l 1050 0 q 1010 20 1035 2 q 918 138 962 57 q 830 309 899 172 q 634 598 761 446 q 918 968 751 716 q 1050 1107 1002 1090 l 766 1107 z "},"L":{"ha":1006,"x_min":0,"x_max":800,"o":"m 229 132 l 229 977 q 243 1046 229 1016 q 276 1085 255 1069 q 323 1107 300 1103 l 0 1107 q 47 1085 24 1103 q 80 1046 68 1069 q 95 977 95 1016 l 95 131 q 47 22 95 58 q 0 0 24 4 l 800 0 l 800 227 q 778 179 796 203 q 669 132 741 132 l 229 132 z "},"M":{"ha":1478,"x_min":0,"x_max":1274,"o":"m 954 1109 l 954 1109 l 954 1108 q 957 1106 956 1107 q 966 1099 962 1103 q 991 1069 981 1086 q 983 939 1020 1015 l 983 939 l 637 233 l 293 937 l 292 939 q 271 1017 271 981 q 284 1069 271 1046 q 321 1109 299 1097 l 0 1109 q 47 1086 24 1105 q 80 1047 68 1071 q 95 978 95 1017 l 95 132 q 47 24 95 60 q 0 1 24 5 l 321 1 q 273 24 297 5 q 227 132 227 60 l 227 761 l 637 -61 l 1048 761 l 1048 132 q 1001 24 1048 60 q 954 1 977 5 l 1274 1 q 1227 24 1251 5 q 1179 132 1179 60 l 1179 978 q 1227 1086 1179 1050 q 1274 1109 1251 1105 l 954 1109 z "},"N":{"ha":1378,"x_min":0,"x_max":1175,"o":"m 853 1107 q 901 1085 877 1103 q 933 1046 922 1069 q 948 977 948 1016 l 948 231 l 305 973 q 284 1067 264 1021 q 304 1095 291 1082 q 313 1103 309 1099 q 319 1107 317 1105 q 321 1107 320 1107 l 0 1107 q 47 1085 24 1103 q 80 1046 68 1069 q 95 977 95 1016 l 95 131 q 47 22 95 58 q 0 0 24 4 l 321 0 q 273 22 297 4 q 241 62 253 38 q 227 131 227 91 l 227 861 l 877 110 q 882 32 905 72 q 853 0 871 12 l 1175 0 q 1127 22 1151 4 q 1095 62 1106 38 q 1080 131 1080 91 l 1080 977 q 1127 1085 1080 1048 q 1175 1107 1151 1103 l 853 1107 z "},"O":{"ha":1357,"x_min":1,"x_max":1154,"o":"m 578 96 q 257 230 390 96 q 123 553 123 364 q 257 878 123 743 q 578 1012 390 1012 q 899 878 765 1012 q 1031 553 1031 743 q 899 230 1031 364 q 578 96 765 96 m 578 1137 q 353 1091 460 1137 q 170 966 250 1047 q 46 781 90 885 q 1 553 1 672 q 170 141 1 313 q 353 16 250 60 q 578 -30 460 -30 q 802 16 694 -30 q 985 141 905 60 q 1109 327 1065 222 q 1154 553 1154 435 q 985 966 1154 795 q 802 1091 905 1047 q 578 1137 694 1137 z "},"P":{"ha":1063,"x_min":0,"x_max":860,"o":"m 0 1107 q 47 1085 24 1103 q 80 1046 68 1069 q 95 977 95 1016 l 95 131 q 47 22 95 58 q 0 0 24 4 l 321 0 q 273 22 297 4 q 241 62 253 38 q 227 131 227 91 l 227 987 l 538 987 q 625 956 587 977 q 745 734 745 891 q 744 728 745 731 q 743 717 744 722 q 739 686 742 701 q 709 604 730 640 q 487 493 644 493 q 374 439 418 493 q 331 300 331 387 q 363 345 331 321 q 425 374 393 366 q 456 378 437 377 l 471 378 l 487 377 q 784 508 684 377 q 860 734 860 606 q 722 1031 860 930 q 600 1090 668 1070 q 487 1107 542 1107 l 0 1107 z "},"Q":{"ha":1357,"x_min":0,"x_max":1233,"o":"m 1027 -26 q 821 102 908 79 q 730 113 782 112 q 684 113 709 113 l 662 112 l 640 111 q 576 109 595 109 q 256 241 389 109 q 123 562 123 374 q 256 882 123 749 q 576 1015 389 1015 q 896 882 763 1015 q 1029 562 1029 749 q 971 334 1029 444 q 798 187 904 206 l 798 187 l 796 187 q 924 187 848 161 q 1036 254 987 209 q 1123 397 1091 304 q 1152 562 1152 479 q 983 968 1152 800 q 800 1092 903 1048 q 576 1137 693 1137 q 169 968 338 1137 q 45 785 89 889 q 0 562 0 678 q 169 155 0 323 q 352 31 249 75 q 576 -14 459 -14 q 611 -14 591 -14 l 646 -12 l 684 -10 q 722 -10 705 -9 q 791 -18 763 -11 q 907 -85 831 -28 q 1063 -168 1000 -155 q 1233 -131 1139 -182 q 1088 -77 1163 -132 q 1057 -52 1074 -66 q 1027 -26 1046 -43 z "},"R":{"ha":1206,"x_min":0,"x_max":1003,"o":"m 810 142 q 792 187 810 142 q 759 270 775 232 q 639 434 707 388 q 779 564 723 461 q 829 751 829 656 q 697 1034 829 938 q 581 1090 646 1072 q 473 1107 525 1107 l 0 1107 q 47 1084 24 1103 q 95 976 95 1048 l 95 130 q 80 61 95 91 q 47 22 68 38 q 0 -1 24 3 l 321 -1 q 273 22 297 3 q 227 130 227 58 q 227 991 227 988 l 475 991 l 479 991 q 490 991 484 991 q 521 986 505 989 q 602 958 566 978 q 713 751 713 897 q 656 586 713 652 q 544 503 603 524 q 408 494 487 482 q 580 326 518 423 q 646 179 633 242 q 741 14 681 60 q 857 -27 789 -23 q 912 -25 883 -29 q 959 -16 936 -22 q 1002 -2 976 -12 l 1003 -2 l 1003 -2 q 991 -3 998 -3 q 972 -1 982 -2 q 920 16 945 3 q 810 142 844 52 z "},"S":{"ha":1044,"x_min":1,"x_max":840,"o":"m 536 640 q 434 687 536 640 q 290 777 333 734 q 246 882 241 825 q 301 968 251 936 q 494 1000 385 1020 q 564 980 529 994 q 587 970 576 975 q 595 966 591 968 l 597 965 l 600 964 q 645 895 637 937 q 646 866 648 880 q 642 851 645 854 l 823 1024 q 820 1023 823 1023 q 812 1023 817 1023 q 783 1027 801 1023 q 659 1081 733 1040 q 642 1088 655 1082 l 635 1091 l 628 1095 q 611 1102 619 1099 q 517 1131 564 1122 q 224 1074 370 1158 q 115 895 125 1005 q 132 779 109 837 q 197 683 155 723 q 453 541 265 621 q 679 399 641 462 q 696 276 712 343 q 629 166 680 213 q 509 113 575 118 q 302 131 393 89 q 245 167 271 146 q 228 183 236 175 q 217 195 222 189 q 163 282 173 244 q 161 307 159 296 q 165 318 162 315 l 1 189 l 2 190 l 3 190 q 9 190 6 190 q 30 183 18 189 q 123 104 68 165 q 129 98 125 102 l 133 94 l 138 89 q 161 66 150 77 q 245 12 199 35 q 537 -16 376 -48 q 709 64 632 3 q 825 245 803 138 q 831 362 840 301 q 783 478 821 431 q 536 640 739 545 z "},"T":{"ha":1135,"x_min":0,"x_max":932,"o":"m 0 1107 l 0 881 q 22 928 4 905 q 62 961 38 949 q 131 976 91 976 l 400 976 l 400 131 q 353 22 400 58 q 305 0 329 4 l 627 0 q 579 22 603 4 q 532 131 532 58 l 532 976 l 801 976 q 870 961 840 976 q 909 928 894 949 q 932 881 928 905 l 932 1107 l 0 1107 z "},"U":{"ha":1403,"x_min":0,"x_max":1200,"o":"m 973 977 q 974 481 973 960 q 871 208 974 318 q 601 94 764 94 q 331 208 437 94 q 228 481 228 318 l 228 977 q 243 1045 228 1016 q 277 1085 256 1069 q 327 1107 302 1103 l 0 1107 q 50 1085 24 1103 q 83 1045 71 1069 q 99 977 99 1016 q 100 481 99 960 q 240 121 100 267 q 601 -29 384 -29 q 961 121 818 -29 q 1102 481 1102 267 l 1102 982 q 1118 1048 1103 1019 q 1152 1086 1131 1070 q 1200 1107 1176 1103 l 875 1107 q 924 1085 899 1103 q 958 1045 945 1069 q 973 977 973 1016 z "},"V":{"ha":1363,"x_min":0,"x_max":1160,"o":"m 882 977 q 827 840 869 945 l 817 817 l 808 793 q 788 743 797 766 q 745 637 764 685 q 580 225 632 355 q 415 637 528 355 q 372 743 395 685 q 352 793 363 766 l 342 817 l 333 840 q 279 977 291 945 q 279 1085 250 1048 q 315 1107 294 1103 l 0 1107 q 53 1085 24 1103 q 99 1046 79 1069 q 141 977 125 1016 q 311 553 171 901 l 337 488 q 363 422 354 446 q 412 302 393 349 q 480 131 462 176 q 479 22 509 58 q 444 0 465 4 l 715 0 q 680 22 695 4 q 680 131 651 58 q 850 553 732 262 q 1019 977 982 883 q 1107 1085 1048 1048 q 1160 1107 1136 1103 l 846 1107 q 881 1085 866 1103 q 882 977 910 1048 z "},"W":{"ha":1817,"x_min":0,"x_max":1613,"o":"m 1335 977 q 1199 637 1305 903 q 1110 416 1164 549 q 1089 363 1101 394 l 1079 338 l 1069 313 q 1034 225 1046 256 q 960 407 1010 284 l 950 433 l 940 459 l 918 512 q 876 618 893 574 q 920 731 894 665 l 931 758 l 941 783 q 961 833 954 814 q 1019 977 1004 940 q 1061 1046 1035 1016 q 1107 1085 1081 1069 q 1160 1107 1136 1103 l 846 1107 q 881 1085 866 1103 q 882 977 910 1048 q 851 900 875 960 q 830 848 838 869 q 807 790 818 818 q 783 848 798 814 l 778 862 l 772 876 q 763 900 767 890 q 732 977 741 954 q 732 1085 703 1048 q 768 1107 747 1103 l 454 1107 q 507 1085 477 1103 q 553 1046 532 1069 q 595 977 578 1016 q 652 833 606 947 q 672 783 665 802 q 693 731 683 755 q 738 619 718 670 q 653 407 699 523 q 580 225 618 319 q 414 637 529 352 q 372 743 397 681 l 361 769 l 352 793 q 333 840 340 822 q 279 977 292 941 q 264 1046 262 1016 q 279 1085 266 1069 q 315 1107 294 1103 l 0 1107 q 53 1085 24 1103 q 141 977 112 1048 q 311 553 174 893 q 363 422 333 498 q 388 360 372 400 l 400 330 l 412 302 q 480 131 464 171 q 494 62 496 91 q 479 22 492 38 q 444 0 465 4 l 715 0 q 680 22 695 4 q 680 131 651 58 q 701 184 686 148 l 708 201 l 715 219 q 731 258 724 243 q 807 448 774 366 q 847 347 825 401 q 865 301 855 326 q 883 258 872 284 q 934 131 923 157 q 947 62 949 91 q 933 22 946 38 q 898 0 918 4 l 1169 0 q 1134 22 1149 4 q 1120 62 1121 38 q 1133 131 1118 91 q 1202 302 1152 176 q 1251 422 1221 348 l 1263 455 l 1276 488 l 1303 553 q 1473 977 1442 900 q 1514 1046 1489 1016 q 1560 1085 1535 1069 q 1613 1107 1590 1103 l 1299 1107 q 1335 1085 1320 1103 q 1349 1046 1348 1069 q 1335 977 1351 1016 z "},"X":{"ha":1247,"x_min":0,"x_max":1044,"o":"m 692 1107 q 726 1085 713 1103 q 733 1046 736 1069 q 705 977 730 1016 q 522 684 670 920 q 412 859 465 774 q 338 977 366 934 q 310 1046 314 1016 q 318 1085 307 1069 q 352 1107 330 1103 l 0 1107 q 61 1085 26 1103 q 119 1046 92 1069 q 176 977 152 1016 q 283 806 197 943 q 320 747 306 769 q 359 684 341 713 q 441 553 404 612 q 283 302 374 447 q 250 248 269 278 q 235 224 244 239 l 227 212 l 220 201 q 176 131 189 151 q 61 22 132 58 q 0 0 26 4 l 352 0 q 318 22 330 4 q 310 62 307 38 q 338 131 314 91 q 353 153 344 139 q 361 166 355 157 l 370 180 q 412 249 394 220 q 522 424 471 344 q 580 332 549 380 q 631 249 602 296 q 705 131 692 151 q 726 22 750 58 q 692 0 713 4 l 1044 0 q 983 22 1017 4 q 925 62 951 38 q 867 131 892 91 q 760 302 846 164 q 724 360 738 338 q 685 422 703 394 q 603 553 640 494 q 685 684 640 613 q 760 806 716 734 q 867 977 850 949 q 983 1085 912 1048 q 1044 1107 1017 1103 l 692 1107 z "},"Y":{"ha":1448,"x_min":0,"x_max":1244,"o":"m 930 1016 q 792 779 910 983 q 702 624 736 683 q 623 490 653 541 q 543 624 591 541 q 452 779 508 683 q 314 1016 334 983 q 299 1064 297 1044 q 315 1092 301 1080 q 353 1107 331 1105 l 0 1107 q 57 1092 25 1105 q 151 1016 120 1066 q 323 736 181 966 q 382 640 349 694 q 441 544 405 604 q 546 375 519 418 l 557 357 l 557 131 q 542 62 557 91 q 509 22 530 38 q 462 0 486 4 l 783 0 q 735 22 759 4 q 688 131 688 58 l 688 355 l 700 374 q 811 555 739 437 l 841 604 l 871 653 q 930 749 906 711 q 1093 1016 1067 972 q 1187 1092 1124 1066 q 1244 1107 1219 1105 l 892 1107 q 930 1092 914 1105 q 930 1016 962 1066 z "},"Z":{"ha":1155,"x_min":0,"x_max":956,"o":"m 255 132 l 956 1107 q 0 1107 129 1107 l 0 881 q 22 928 4 905 q 62 961 38 949 q 131 976 91 976 l 701 976 l 94 132 l 0 0 l 952 0 l 952 227 q 930 179 948 203 q 821 132 894 132 l 255 132 z "},"[":{"ha":467,"x_min":0,"x_max":0,"o":""},"\\":{"ha":576,"x_min":0,"x_max":0,"o":""},"]":{"ha":467,"x_min":0,"x_max":0,"o":""},"^":{"ha":1044,"x_min":0,"x_max":0,"o":""},"_":{"ha":599,"x_min":0,"x_max":0,"o":""},"`":{"ha":521,"x_min":0,"x_max":0,"o":""},"a":{"ha":1448,"x_min":0,"x_max":1244,"o":"m 1093 131 q 911 553 1047 238 q 729 977 772 876 q 730 1085 699 1048 q 768 1107 746 1103 l 477 1107 q 515 1085 498 1103 q 515 977 546 1048 q 333 553 471 873 q 151 131 196 235 q 57 22 120 58 q 0 0 25 4 l 337 0 q 300 22 315 4 q 284 61 286 37 q 298 129 281 90 q 338 170 313 154 q 420 189 372 189 l 680 189 q 774 224 739 189 q 812 302 802 253 q 814 416 825 359 q 784 368 807 392 q 738 336 764 347 q 664 321 705 321 l 420 321 q 379 318 398 321 q 394 352 389 340 l 409 387 q 441 460 427 427 q 506 612 477 545 q 623 882 581 787 q 800 471 676 757 q 846 363 818 429 l 857 338 l 867 314 q 887 267 879 286 q 946 131 930 166 q 945 22 977 58 q 907 0 929 4 l 1244 0 q 1187 22 1219 4 q 1138 62 1160 38 q 1093 131 1110 91 z "},"b":{"ha":1164,"x_min":0,"x_max":960,"o":"m 838 323 l 838 320 l 838 317 q 788 183 838 231 q 669 129 745 143 q 621 123 645 125 q 606 123 612 123 q 602 123 604 123 l 600 123 l 599 123 l 227 123 q 227 554 227 125 l 227 985 l 549 985 q 739 924 683 985 q 774 854 766 895 q 778 828 778 841 q 778 820 779 824 l 778 818 l 778 817 l 778 814 l 778 812 q 730 684 778 729 l 719 674 q 672 648 699 659 q 648 640 662 644 l 623 632 q 529 586 559 612 q 455 456 465 529 q 454 411 452 433 l 455 404 q 456 398 456 401 l 457 396 l 457 395 l 457 394 l 457 395 q 458 397 458 396 q 459 397 459 397 q 588 490 500 471 q 747 471 671 509 q 799 433 778 456 q 834 361 825 404 q 838 334 838 347 q 838 326 838 330 l 838 323 m 769 581 q 776 585 769 582 q 783 587 780 586 q 791 591 787 589 q 837 625 817 604 q 901 806 901 688 l 901 810 l 901 816 q 901 832 901 823 q 895 880 900 856 q 831 1005 880 952 q 549 1107 739 1107 l 0 1107 q 47 1086 24 1104 q 95 977 95 1049 l 95 132 q 80 62 95 92 q 47 23 68 39 q 0 1 24 5 l 596 0 q 602 0 598 0 l 610 0 q 633 1 621 0 q 704 11 669 3 q 873 94 808 33 q 960 312 959 176 q 878 518 960 443 q 814 562 850 543 q 787 574 802 568 l 782 576 l 777 578 q 769 581 772 581 z "},"c":{"ha":1246,"x_min":-6,"x_max":1037,"o":"m 878 1058 l 874 1060 q 864 1065 869 1063 q 836 1080 850 1074 q 748 1114 793 1101 q 469 1126 612 1155 q 148 942 290 1101 q 0 557 -5 770 q 146 172 -6 345 q 465 -16 287 11 q 745 -5 608 -44 q 832 28 790 8 q 861 43 846 35 q 871 48 865 45 l 875 50 l 878 52 q 997 106 947 96 q 1025 109 1013 110 q 1032 108 1029 109 q 1036 107 1035 107 l 997 144 q 998 203 1017 180 q 966 218 985 218 q 939 202 948 217 l 932 208 q 947 241 930 225 q 979 261 960 255 l 979 261 l 977 262 l 977 263 l 975 263 l 964 262 l 953 261 q 931 256 940 260 q 904 236 918 250 l 865 275 q 867 271 866 273 q 871 263 869 267 q 872 239 874 251 q 812 165 865 201 l 809 164 l 806 162 q 798 158 802 160 q 777 146 787 152 q 709 121 743 131 q 492 113 603 91 q 244 258 353 134 q 132 557 126 392 q 246 854 127 722 q 494 998 356 979 q 711 988 606 1020 q 779 962 746 978 q 800 951 789 957 q 808 946 804 949 l 811 945 l 814 943 q 861 871 853 915 q 863 842 864 856 q 859 827 861 830 l 905 871 q 972 837 937 838 q 994 840 982 837 l 1006 843 l 1017 846 l 1017 846 l 1018 848 l 1019 849 l 1019 849 q 977 859 996 848 q 956 894 954 871 q 989 884 969 878 q 1016 910 1008 890 q 998 960 1024 935 l 1037 998 q 1034 996 1036 997 q 1027 996 1031 996 q 999 1000 1015 996 q 881 1056 950 1012 l 878 1058 z "},"d":{"ha":1245,"x_min":0,"x_max":1042,"o":"m 886 969 q 638 1094 788 1062 q 507 1107 563 1110 l 321 1107 l 322 1107 l 0 1107 q 47 1086 24 1104 q 80 1046 68 1069 q 95 977 95 1017 l 95 159 q 47 35 95 87 q 0 -3 24 9 q 113 16 57 -4 q 227 159 227 55 l 227 977 l 227 984 l 511 984 l 513 984 l 519 984 q 540 983 529 984 q 613 974 576 981 q 802 878 729 949 q 918 552 918 768 l 918 549 l 918 543 q 917 517 918 530 q 904 434 913 475 q 797 224 874 303 q 608 138 732 159 q 500 126 567 132 l 448 123 l 397 118 q 258 56 309 108 q 216 -99 200 -5 l 216 -98 q 322 -18 235 -45 q 396 -3 356 -8 q 461 1 431 1 q 886 139 748 -1 q 1023 404 985 241 q 1040 507 1036 455 q 1042 539 1041 524 q 1042 549 1042 545 l 1042 553 q 886 969 1042 822 z "},"e":{"ha":1047,"x_min":0,"x_max":844,"o":"m 0 1107 q 47 1085 24 1103 q 80 1046 68 1069 q 95 977 95 1016 l 95 131 q 47 22 95 58 q 0 0 24 4 l 844 0 l 844 227 q 821 179 840 203 q 782 146 806 158 q 713 132 752 132 l 231 132 l 231 427 q 242 451 235 439 q 265 478 252 467 q 363 511 302 511 l 623 511 q 718 546 683 511 q 756 624 745 574 q 759 737 768 680 q 728 690 751 713 q 608 642 683 642 l 363 642 q 265 620 302 642 q 242 601 252 612 q 231 585 235 593 l 231 976 l 705 976 q 813 928 777 976 q 835 881 831 905 l 835 1107 l 0 1107 z "},"f":{"ha":1052,"x_min":0,"x_max":848,"o":"m 0 1107 q 47 1085 24 1103 q 80 1046 68 1069 q 95 977 95 1016 l 95 131 q 47 22 95 58 q 0 0 24 4 l 326 0 q 279 22 302 4 q 231 131 231 58 l 231 396 q 242 420 235 408 q 265 448 252 435 q 363 480 302 480 l 623 480 q 718 515 683 480 q 756 593 745 543 q 759 706 768 650 q 728 659 751 682 q 608 611 683 611 l 363 611 q 265 589 302 611 q 242 570 252 581 q 231 554 235 563 l 231 976 l 718 976 q 787 961 758 976 q 827 928 810 949 q 848 881 845 905 l 848 1107 l 0 1107 z "},"g":{"ha":1246,"x_min":-6,"x_max":1037,"o":"m 1037 997 q 1034 996 1036 996 q 1027 995 1031 995 q 999 999 1015 995 q 881 1055 950 1011 l 878 1057 l 874 1059 q 864 1065 869 1063 q 836 1080 850 1073 q 748 1114 793 1100 q 469 1126 612 1154 q 148 941 290 1101 q 0 556 -5 769 q 146 171 -6 344 q 465 -16 287 10 q 745 -6 608 -45 q 832 27 790 7 q 861 42 846 34 q 871 47 865 44 l 875 50 l 878 52 q 991 104 943 93 q 1021 109 1008 109 q 1029 108 1025 109 q 1034 106 1032 108 l 1036 106 q 988 200 988 151 l 988 561 l 749 561 q 808 538 779 555 q 847 504 833 524 q 865 447 865 479 l 865 218 q 812 165 850 191 l 809 163 l 806 161 q 798 157 802 159 q 777 146 787 151 q 709 121 743 130 q 492 113 603 90 q 244 257 353 133 q 132 556 126 391 q 246 854 127 721 q 494 997 356 978 q 711 987 606 1019 q 779 962 746 977 q 800 950 789 956 q 808 945 804 948 l 811 944 l 814 943 q 861 871 853 914 q 863 841 864 855 q 859 826 861 829 l 1037 997 z "},"h":{"ha":1278,"x_min":0,"x_max":1074,"o":"m 753 1107 q 801 1085 777 1103 q 848 977 848 1048 l 848 658 q 823 618 839 633 q 772 599 802 599 l 308 599 q 250 581 272 599 q 235 564 241 573 q 227 547 229 556 l 227 977 q 273 1085 227 1048 q 321 1107 297 1103 l 0 1107 q 47 1085 24 1103 q 80 1046 68 1069 q 95 977 95 1016 l 95 131 q 47 22 95 58 q 0 0 24 4 l 321 0 q 273 22 297 4 q 227 131 227 58 l 227 393 q 235 416 230 406 q 250 441 241 430 q 308 467 273 467 l 772 467 q 823 481 802 467 q 848 508 839 491 l 848 131 q 833 62 848 91 q 801 22 822 38 q 753 0 777 4 l 1074 0 q 1027 22 1050 4 q 980 131 980 58 l 980 977 q 1027 1085 980 1048 q 1074 1107 1050 1103 l 753 1107 z "},"i":{"ha":524,"x_min":0,"x_max":321,"o":"m 0 1107 q 47 1085 24 1103 q 80 1046 68 1069 q 95 977 95 1016 l 95 131 q 47 22 95 58 q 0 0 24 4 l 321 0 q 273 22 297 4 q 227 131 227 58 l 227 977 q 273 1085 227 1048 q 321 1107 297 1103 l 0 1107 z "},"j":{"ha":1039,"x_min":-1,"x_max":835,"o":"m 610 378 q 523 180 610 262 q 313 97 436 97 q 257 102 286 97 q 252 104 254 103 q 245 106 248 104 q 227 113 235 109 q 186 136 202 122 q 161 235 136 175 l 104 181 q 89 205 99 195 q 50 219 73 220 q 14 202 28 218 q 0 164 -1 186 q 17 127 1 142 q 26 121 21 124 q 29 161 12 142 q 43 172 35 169 q 50 174 46 173 l 55 174 q 42 154 43 168 q 49 132 40 140 l 50 132 l 51 131 l 11 93 q 313 -26 136 -26 q 615 93 490 -26 q 741 378 741 212 l 741 976 q 787 1084 741 1048 q 835 1107 811 1103 l 523 1107 q 559 1093 539 1104 q 610 1025 597 1069 l 610 378 z "},"k":{"ha":1254,"x_min":0,"x_max":1050,"o":"m 0 1107 q 47 1085 24 1103 q 80 1046 68 1069 q 95 977 95 1016 l 95 131 q 47 22 95 58 q 0 0 24 4 l 321 0 q 273 22 297 4 q 227 131 227 58 l 227 977 q 273 1085 227 1048 q 321 1107 297 1103 l 0 1107 m 766 1107 q 785 1071 784 1103 q 703 868 786 1007 q 422 608 595 690 q 362 522 367 582 q 397 420 357 465 q 398 420 397 420 l 399 419 l 399 419 q 434 498 394 466 q 504 522 463 522 q 766 138 581 522 q 791 20 808 55 q 766 0 783 1 l 1050 0 q 1010 20 1035 2 q 918 138 962 57 q 830 309 899 172 q 634 598 761 446 q 918 968 751 716 q 1050 1107 1002 1090 l 766 1107 z "},"l":{"ha":1003,"x_min":0,"x_max":800,"o":"m 229 132 l 229 977 q 243 1046 229 1016 q 276 1085 255 1069 q 323 1107 300 1103 l 0 1107 q 47 1085 24 1103 q 80 1046 68 1069 q 95 977 95 1016 l 95 131 q 47 22 95 58 q 0 0 24 4 l 800 0 l 800 227 q 778 179 796 203 q 669 132 741 132 l 229 132 z "},"m":{"ha":1478,"x_min":0,"x_max":1274,"o":"m 954 1109 l 954 1109 l 954 1108 q 957 1106 956 1107 q 966 1099 962 1103 q 991 1069 981 1086 q 983 939 1020 1015 l 983 939 l 637 233 l 293 937 l 292 939 q 271 1017 271 981 q 284 1069 271 1046 q 321 1109 299 1097 l 0 1109 q 47 1086 24 1105 q 80 1047 68 1071 q 95 978 95 1017 l 95 132 q 47 24 95 60 q 0 1 24 5 l 321 1 q 273 24 297 5 q 227 132 227 60 l 227 761 l 637 -61 l 1048 761 l 1048 132 q 1001 24 1048 60 q 954 1 977 5 l 1274 1 q 1227 24 1251 5 q 1179 132 1179 60 l 1179 978 q 1227 1086 1179 1050 q 1274 1109 1251 1105 l 954 1109 z "},"n":{"ha":1378,"x_min":0,"x_max":1175,"o":"m 853 1107 q 901 1085 877 1103 q 933 1046 922 1069 q 948 977 948 1016 l 948 231 l 305 973 q 284 1067 264 1021 q 304 1095 291 1082 q 313 1103 309 1099 q 319 1107 317 1105 q 321 1107 320 1107 l 0 1107 q 47 1085 24 1103 q 80 1046 68 1069 q 95 977 95 1016 l 95 131 q 47 22 95 58 q 0 0 24 4 l 321 0 q 273 22 297 4 q 241 62 253 38 q 227 131 227 91 l 227 861 l 877 110 q 882 32 905 72 q 853 0 871 12 l 1175 0 q 1127 22 1151 4 q 1095 62 1106 38 q 1080 131 1080 91 l 1080 977 q 1127 1085 1080 1048 q 1175 1107 1151 1103 l 853 1107 z "},"o":{"ha":1357,"x_min":1,"x_max":1154,"o":"m 578 96 q 257 230 390 96 q 123 553 123 364 q 257 878 123 743 q 578 1012 390 1012 q 899 878 765 1012 q 1031 553 1031 743 q 899 230 1031 364 q 578 96 765 96 m 578 1137 q 353 1091 460 1137 q 170 966 250 1047 q 46 781 90 885 q 1 553 1 672 q 170 141 1 313 q 353 16 250 60 q 578 -30 460 -30 q 802 16 694 -30 q 985 141 905 60 q 1109 327 1065 222 q 1154 553 1154 435 q 985 966 1154 795 q 802 1091 905 1047 q 578 1137 694 1137 z "},"p":{"ha":1063,"x_min":0,"x_max":860,"o":"m 0 1107 q 47 1085 24 1103 q 80 1046 68 1069 q 95 977 95 1016 l 95 131 q 47 22 95 58 q 0 0 24 4 l 321 0 q 273 22 297 4 q 241 62 253 38 q 227 131 227 91 l 227 987 l 538 987 q 625 956 587 977 q 745 734 745 891 q 744 728 745 731 q 743 717 744 722 q 739 686 742 701 q 709 604 730 640 q 487 493 644 493 q 374 439 418 493 q 331 300 331 387 q 363 345 331 321 q 425 374 393 366 q 456 378 437 377 l 471 378 l 487 377 q 784 508 684 377 q 860 734 860 606 q 722 1031 860 930 q 600 1090 668 1070 q 487 1107 542 1107 l 0 1107 z "},"q":{"ha":1357,"x_min":0,"x_max":1233,"o":"m 1027 -26 q 821 102 908 79 q 730 113 782 112 q 684 113 709 113 l 662 112 l 640 111 q 576 109 595 109 q 256 241 389 109 q 123 562 123 374 q 256 882 123 749 q 576 1015 389 1015 q 896 882 763 1015 q 1029 562 1029 749 q 971 334 1029 444 q 798 187 904 206 l 798 187 l 796 187 q 924 187 848 161 q 1036 254 987 209 q 1123 397 1091 304 q 1152 562 1152 479 q 983 968 1152 800 q 800 1092 903 1048 q 576 1137 693 1137 q 169 968 338 1137 q 45 785 89 889 q 0 562 0 678 q 169 155 0 323 q 352 31 249 75 q 576 -14 459 -14 q 611 -14 591 -14 l 646 -12 l 684 -10 q 722 -10 705 -9 q 791 -18 763 -11 q 907 -85 831 -28 q 1063 -168 1000 -155 q 1233 -131 1139 -182 q 1088 -77 1163 -132 q 1057 -52 1074 -66 q 1027 -26 1046 -43 z "},"r":{"ha":1206,"x_min":0,"x_max":1003,"o":"m 810 142 q 792 187 810 142 q 759 270 775 232 q 639 434 707 388 q 779 564 723 461 q 829 751 829 656 q 697 1034 829 938 q 581 1090 646 1072 q 473 1107 525 1107 l 0 1107 q 47 1084 24 1103 q 95 976 95 1048 l 95 130 q 80 61 95 91 q 47 22 68 38 q 0 -1 24 3 l 321 -1 q 273 22 297 3 q 227 130 227 58 q 227 991 227 988 l 475 991 l 479 991 q 490 991 484 991 q 521 986 505 989 q 602 958 566 978 q 713 751 713 897 q 656 586 713 652 q 544 503 603 524 q 408 494 487 482 q 580 326 518 423 q 646 179 633 242 q 741 14 681 60 q 857 -27 789 -23 q 912 -25 883 -29 q 959 -16 936 -22 q 1002 -2 976 -12 l 1003 -2 l 1003 -2 q 991 -3 998 -3 q 972 -1 982 -2 q 920 16 945 3 q 810 142 844 52 z "},"s":{"ha":1044,"x_min":0,"x_max":840,"o":"m 523 650 q 428 692 523 650 q 290 777 333 734 q 246 882 241 825 q 301 968 251 936 q 494 1000 385 1020 q 564 980 529 994 q 587 970 576 975 q 595 966 591 968 l 597 965 l 600 964 q 645 895 637 937 q 646 866 648 880 q 642 851 645 854 l 680 887 q 686 880 682 883 q 722 871 702 866 q 745 897 742 876 q 745 855 759 878 q 713 826 734 837 l 714 825 l 715 825 l 717 825 l 718 824 l 728 827 l 739 830 q 760 839 752 834 q 802 907 793 859 q 777 980 811 959 l 823 1024 q 820 1023 823 1023 q 812 1023 817 1023 q 783 1027 801 1023 q 659 1081 733 1040 q 642 1088 655 1082 l 635 1091 l 628 1095 q 611 1102 619 1099 q 517 1131 564 1122 q 224 1074 370 1158 q 115 895 125 1005 q 132 779 109 837 q 197 683 155 723 q 453 541 265 621 q 679 399 641 462 q 696 276 712 343 q 629 166 680 213 q 509 113 575 118 q 302 131 393 89 q 245 167 271 146 q 228 183 236 175 q 217 195 222 189 q 163 282 173 244 q 161 307 159 296 q 165 318 162 315 l 133 292 q 89 320 115 311 q 43 326 63 330 q 22 318 33 323 l 12 313 l 1 307 l 1 307 l 1 305 l 0 304 l 0 303 q 43 304 22 309 q 71 273 68 296 q 37 276 55 286 q 16 244 18 266 q 29 212 14 227 l 1 189 l 2 190 l 3 190 q 9 190 6 190 q 30 183 18 189 q 123 104 68 165 q 129 98 125 102 l 133 94 l 138 89 q 161 66 150 77 q 245 12 199 35 q 537 -16 376 -48 q 709 64 632 3 q 825 245 803 138 q 831 362 840 301 q 783 478 821 431 q 523 650 713 566 z "},"t":{"ha":1135,"x_min":0,"x_max":932,"o":"m 0 1107 l 0 881 q 22 928 4 905 q 62 961 38 949 q 131 976 91 976 l 400 976 l 400 131 q 353 22 400 58 q 305 0 329 4 l 627 0 q 579 22 603 4 q 532 131 532 58 l 532 976 l 801 976 q 870 961 840 976 q 909 928 894 949 q 932 881 928 905 l 932 1107 l 0 1107 z "},"u":{"ha":1403,"x_min":0,"x_max":1200,"o":"m 973 977 q 974 481 973 960 q 871 208 974 318 q 601 94 764 94 q 331 208 437 94 q 228 481 228 318 l 228 977 q 243 1045 228 1016 q 277 1085 256 1069 q 327 1107 302 1103 l 0 1107 q 50 1085 24 1103 q 83 1045 71 1069 q 99 977 99 1016 q 100 481 99 960 q 240 121 100 267 q 601 -29 384 -29 q 961 121 818 -29 q 1102 481 1102 267 l 1102 982 q 1118 1048 1103 1019 q 1152 1086 1131 1070 q 1200 1107 1176 1103 l 875 1107 q 924 1085 899 1103 q 958 1045 945 1069 q 973 977 973 1016 z "},"v":{"ha":1363,"x_min":0,"x_max":1160,"o":"m 882 977 q 827 840 869 945 l 817 817 l 808 793 q 788 743 797 766 q 745 637 764 685 q 580 225 632 355 q 415 637 528 355 q 372 743 395 685 q 352 793 363 766 l 342 817 l 333 840 q 279 977 291 945 q 279 1085 250 1048 q 315 1107 294 1103 l 0 1107 q 53 1085 24 1103 q 99 1046 79 1069 q 141 977 125 1016 q 311 553 171 901 l 337 488 q 363 422 354 446 q 412 302 393 349 q 480 131 462 176 q 479 22 509 58 q 444 0 465 4 l 715 0 q 680 22 695 4 q 680 131 651 58 q 850 553 732 262 q 1019 977 982 883 q 1107 1085 1048 1048 q 1160 1107 1136 1103 l 846 1107 q 881 1085 866 1103 q 882 977 910 1048 z "},"w":{"ha":1817,"x_min":0,"x_max":1613,"o":"m 1335 977 q 1199 637 1305 903 q 1110 416 1164 549 q 1089 363 1101 394 l 1079 338 l 1069 313 q 1034 225 1046 256 q 960 407 1010 284 l 950 433 l 940 459 l 918 512 q 876 618 893 574 q 920 731 894 665 l 931 758 l 941 783 q 961 833 954 814 q 1019 977 1004 940 q 1061 1046 1035 1016 q 1107 1085 1081 1069 q 1160 1107 1136 1103 l 846 1107 q 881 1085 866 1103 q 882 977 910 1048 q 851 900 875 960 q 830 848 838 869 q 807 790 818 818 q 783 848 798 814 l 778 862 l 772 876 q 763 900 767 890 q 732 977 741 954 q 732 1085 703 1048 q 768 1107 747 1103 l 454 1107 q 507 1085 477 1103 q 553 1046 532 1069 q 595 977 578 1016 q 652 833 606 947 q 672 783 665 802 q 693 731 683 755 q 738 619 718 670 q 653 407 699 523 q 580 225 618 319 q 414 637 529 352 q 372 743 397 681 l 361 769 l 352 793 q 333 840 340 822 q 279 977 292 941 q 264 1046 262 1016 q 279 1085 266 1069 q 315 1107 294 1103 l 0 1107 q 53 1085 24 1103 q 141 977 112 1048 q 311 553 174 893 q 363 422 333 498 q 388 360 372 400 l 400 330 l 412 302 q 480 131 464 171 q 494 62 496 91 q 479 22 492 38 q 444 0 465 4 l 715 0 q 680 22 695 4 q 680 131 651 58 q 701 184 686 148 l 708 201 l 715 219 q 731 258 724 243 q 807 448 774 366 q 847 347 825 401 q 865 301 855 326 q 883 258 872 284 q 934 131 923 157 q 947 62 949 91 q 933 22 946 38 q 898 0 918 4 l 1169 0 q 1134 22 1149 4 q 1120 62 1121 38 q 1133 131 1118 91 q 1202 302 1152 176 q 1251 422 1221 348 l 1263 455 l 1276 488 l 1303 553 q 1473 977 1442 900 q 1514 1046 1489 1016 q 1560 1085 1535 1069 q 1613 1107 1590 1103 l 1299 1107 q 1335 1085 1320 1103 q 1349 1046 1348 1069 q 1335 977 1351 1016 z "},"x":{"ha":1247,"x_min":0,"x_max":1044,"o":"m 692 1107 q 726 1085 713 1103 q 733 1046 736 1069 q 705 977 730 1016 q 522 684 670 920 q 412 859 465 774 q 338 977 366 934 q 310 1046 314 1016 q 318 1085 307 1069 q 352 1107 330 1103 l 0 1107 q 61 1085 26 1103 q 119 1046 92 1069 q 176 977 152 1016 q 283 806 197 943 q 320 747 306 769 q 359 684 341 713 q 441 553 404 612 q 283 302 374 447 q 250 248 269 278 q 235 224 244 239 l 227 212 l 220 201 q 176 131 189 151 q 61 22 132 58 q 0 0 26 4 l 352 0 q 318 22 330 4 q 310 62 307 38 q 338 131 314 91 q 353 153 344 139 q 361 166 355 157 l 370 180 q 412 249 394 220 q 522 424 471 344 q 580 332 549 380 q 631 249 602 296 q 705 131 692 151 q 726 22 750 58 q 692 0 713 4 l 1044 0 q 983 22 1017 4 q 925 62 951 38 q 867 131 892 91 q 760 302 846 164 q 724 360 738 338 q 685 422 703 394 q 603 553 640 494 q 685 684 640 613 q 760 806 716 734 q 867 977 850 949 q 983 1085 912 1048 q 1044 1107 1017 1103 l 692 1107 z "},"y":{"ha":1448,"x_min":0,"x_max":1244,"o":"m 930 1016 q 792 779 910 983 q 702 624 736 683 q 623 490 653 541 q 543 624 591 541 q 452 779 508 683 q 314 1016 334 983 q 299 1064 297 1044 q 315 1092 301 1080 q 353 1107 331 1105 l 0 1107 q 57 1092 25 1105 q 151 1016 120 1066 q 323 736 181 966 q 382 640 349 694 q 441 544 405 604 q 546 375 519 418 l 557 357 l 557 131 q 542 62 557 91 q 509 22 530 38 q 462 0 486 4 l 783 0 q 735 22 759 4 q 688 131 688 58 l 688 355 l 700 374 q 811 555 739 437 l 841 604 l 871 653 q 930 749 906 711 q 1093 1016 1067 972 q 1187 1092 1124 1066 q 1244 1107 1219 1105 l 892 1107 q 930 1092 914 1105 q 930 1016 962 1066 z "},"z":{"ha":1155,"x_min":0,"x_max":956,"o":"m 255 132 l 956 1107 q 0 1107 129 1107 l 0 881 q 22 928 4 905 q 62 961 38 949 q 131 976 91 976 l 701 976 l 94 132 l 0 0 l 952 0 l 952 227 q 930 179 948 203 q 821 132 894 132 l 255 132 z "},"{":{"ha":470,"x_min":0,"x_max":0,"o":""},"|":{"ha":335,"x_min":0,"x_max":0,"o":""},"}":{"ha":470,"x_min":0,"x_max":0,"o":""},"~":{"ha":829,"x_min":0,"x_max":0,"o":""},"¡":{"ha":380,"x_min":0,"x_max":0,"o":""},"¢":{"ha":769,"x_min":0,"x_max":0,"o":""},"£":{"ha":764,"x_min":0,"x_max":0,"o":""},"¤":{"ha":203,"x_min":0,"x_max":0,"o":""},"¥":{"ha":203,"x_min":0,"x_max":0,"o":""},"¦":{"ha":203,"x_min":0,"x_max":0,"o":""},"§":{"ha":203,"x_min":0,"x_max":0,"o":""},"¨":{"ha":648,"x_min":0,"x_max":0,"o":""},"©":{"ha":203,"x_min":0,"x_max":0,"o":""},"ª":{"ha":203,"x_min":0,"x_max":0,"o":""},"«":{"ha":203,"x_min":0,"x_max":0,"o":""},"¬":{"ha":203,"x_min":0,"x_max":0,"o":""},"®":{"ha":203,"x_min":0,"x_max":0,"o":""},"¯":{"ha":203,"x_min":0,"x_max":0,"o":""},"°":{"ha":203,"x_min":0,"x_max":0,"o":""},"±":{"ha":203,"x_min":0,"x_max":0,"o":""},"²":{"ha":203,"x_min":0,"x_max":0,"o":""},"³":{"ha":203,"x_min":0,"x_max":0,"o":""},"´":{"ha":521,"x_min":0,"x_max":0,"o":""},"µ":{"ha":203,"x_min":0,"x_max":0,"o":""},"¶":{"ha":203,"x_min":0,"x_max":0,"o":""},"·":{"ha":203,"x_min":0,"x_max":0,"o":""},"¸":{"ha":515,"x_min":0,"x_max":0,"o":""},"¹":{"ha":203,"x_min":0,"x_max":0,"o":""},"º":{"ha":203,"x_min":0,"x_max":0,"o":""},"»":{"ha":203,"x_min":0,"x_max":0,"o":""},"¼":{"ha":203,"x_min":0,"x_max":0,"o":""},"½":{"ha":203,"x_min":0,"x_max":0,"o":""},"¾":{"ha":203,"x_min":0,"x_max":0,"o":""},"¿":{"ha":203,"x_min":0,"x_max":0,"o":""},"À":{"ha":1448,"x_min":0,"x_max":0,"o":""},"Á":{"ha":1448,"x_min":0,"x_max":0,"o":""},"Â":{"ha":1448,"x_min":0,"x_max":0,"o":""},"Ã":{"ha":1448,"x_min":0,"x_max":0,"o":""},"Ä":{"ha":1448,"x_min":0,"x_max":0,"o":""},"Å":{"ha":1448,"x_min":0,"x_max":0,"o":""},"Æ":{"ha":1754,"x_min":0,"x_max":0,"o":""},"Ç":{"ha":1246,"x_min":0,"x_max":0,"o":""},"È":{"ha":1052,"x_min":0,"x_max":0,"o":""},"É":{"ha":1052,"x_min":0,"x_max":0,"o":""},"Ê":{"ha":1052,"x_min":0,"x_max":0,"o":""},"Ë":{"ha":1052,"x_min":0,"x_max":0,"o":""},"Ì":{"ha":524,"x_min":0,"x_max":0,"o":""},"Í":{"ha":524,"x_min":0,"x_max":0,"o":""},"Î":{"ha":524,"x_min":0,"x_max":0,"o":""},"Ï":{"ha":524,"x_min":0,"x_max":0,"o":""},"Ð":{"ha":1242,"x_min":0,"x_max":0,"o":""},"Ñ":{"ha":1378,"x_min":0,"x_max":0,"o":""},"Ò":{"ha":1357,"x_min":0,"x_max":0,"o":""},"Ó":{"ha":1357,"x_min":0,"x_max":0,"o":""},"Ô":{"ha":1357,"x_min":0,"x_max":0,"o":""},"Õ":{"ha":1357,"x_min":0,"x_max":0,"o":""},"Ö":{"ha":1357,"x_min":0,"x_max":0,"o":""},"×":{"ha":203,"x_min":0,"x_max":0,"o":""},"Ø":{"ha":1357,"x_min":0,"x_max":0,"o":""},"Ù":{"ha":1403,"x_min":0,"x_max":0,"o":""},"Ú":{"ha":1403,"x_min":0,"x_max":0,"o":""},"Û":{"ha":1403,"x_min":0,"x_max":0,"o":""},"Ü":{"ha":1403,"x_min":0,"x_max":0,"o":""},"Ý":{"ha":1448,"x_min":0,"x_max":0,"o":""},"Þ":{"ha":1118,"x_min":0,"x_max":0,"o":""},"Ÿ":{"ha":1448,"x_min":0,"x_max":0,"o":""},"ß":{"ha":1107,"x_min":0,"x_max":0,"o":""},"à":{"ha":1448,"x_min":0,"x_max":0,"o":""},"á":{"ha":1448,"x_min":0,"x_max":0,"o":""},"â":{"ha":1448,"x_min":0,"x_max":0,"o":""},"ã":{"ha":1448,"x_min":0,"x_max":0,"o":""},"ä":{"ha":1448,"x_min":0,"x_max":0,"o":""},"å":{"ha":1448,"x_min":0,"x_max":0,"o":""},"æ":{"ha":1754,"x_min":0,"x_max":0,"o":""},"ç":{"ha":1246,"x_min":0,"x_max":0,"o":""},"è":{"ha":1052,"x_min":0,"x_max":0,"o":""},"é":{"ha":1052,"x_min":0,"x_max":0,"o":""},"ê":{"ha":1052,"x_min":0,"x_max":0,"o":""},"ë":{"ha":1052,"x_min":0,"x_max":0,"o":""},"ì":{"ha":524,"x_min":0,"x_max":0,"o":""},"í":{"ha":524,"x_min":0,"x_max":0,"o":""},"î":{"ha":524,"x_min":0,"x_max":0,"o":""},"ï":{"ha":524,"x_min":0,"x_max":0,"o":""},"ð":{"ha":1242,"x_min":0,"x_max":0,"o":""},"ñ":{"ha":1378,"x_min":0,"x_max":0,"o":""},"ò":{"ha":1357,"x_min":0,"x_max":0,"o":""},"ó":{"ha":1357,"x_min":0,"x_max":0,"o":""},"ô":{"ha":1357,"x_min":0,"x_max":0,"o":""},"õ":{"ha":1357,"x_min":0,"x_max":0,"o":""},"ö":{"ha":1357,"x_min":0,"x_max":0,"o":""},"÷":{"ha":203,"x_min":0,"x_max":0,"o":""},"ø":{"ha":1357,"x_min":0,"x_max":0,"o":""},"ù":{"ha":1403,"x_min":0,"x_max":0,"o":""},"ú":{"ha":1403,"x_min":0,"x_max":0,"o":""},"û":{"ha":1403,"x_min":0,"x_max":0,"o":""},"ü":{"ha":1403,"x_min":0,"x_max":0,"o":""},"ý":{"ha":1448,"x_min":0,"x_max":0,"o":""},"þ":{"ha":1118,"x_min":0,"x_max":0,"o":""},"ÿ":{"ha":1448,"x_min":0,"x_max":0,"o":""},"ı":{"ha":524,"x_min":0,"x_max":0,"o":""},"ˆ":{"ha":592,"x_min":0,"x_max":0,"o":""},"ˇ":{"ha":592,"x_min":0,"x_max":0,"o":""},"ˉ":{"ha":583,"x_min":0,"x_max":0,"o":""},"˘":{"ha":576,"x_min":0,"x_max":0,"o":""},"˙":{"ha":352,"x_min":0,"x_max":0,"o":""},"˚":{"ha":506,"x_min":0,"x_max":0,"o":""},"˛":{"ha":437,"x_min":0,"x_max":0,"o":""},"˜":{"ha":774,"x_min":0,"x_max":0,"o":""},"˝":{"ha":203,"x_min":0,"x_max":0,"o":""},"–":{"ha":203,"x_min":0,"x_max":0,"o":""},"—":{"ha":203,"x_min":0,"x_max":0,"o":""},"‘":{"ha":363,"x_min":0,"x_max":0,"o":""},"’":{"ha":363,"x_min":0,"x_max":0,"o":""},"‚":{"ha":360,"x_min":0,"x_max":0,"o":""},"“":{"ha":572,"x_min":0,"x_max":0,"o":""},"”":{"ha":572,"x_min":0,"x_max":0,"o":""},"„":{"ha":572,"x_min":0,"x_max":0,"o":""},"†":{"ha":203,"x_min":0,"x_max":0,"o":""},"‡":{"ha":203,"x_min":0,"x_max":0,"o":""},"•":{"ha":203,"x_min":0,"x_max":0,"o":""},"…":{"ha":203,"x_min":0,"x_max":0,"o":""},"‹":{"ha":203,"x_min":0,"x_max":0,"o":""},"›":{"ha":203,"x_min":0,"x_max":0,"o":""},"⁄":{"ha":203,"x_min":0,"x_max":0,"o":""},"₣":{"ha":203,"x_min":0,"x_max":0,"o":""},"₤":{"ha":203,"x_min":0,"x_max":0,"o":""},"₧":{"ha":203,"x_min":0,"x_max":0,"o":""},"€":{"ha":804,"x_min":0,"x_max":0,"o":""},"№":{"ha":203,"x_min":0,"x_max":0,"o":""},"™":{"ha":203,"x_min":0,"x_max":0,"o":""},"∂":{"ha":203,"x_min":0,"x_max":0,"o":""},"∆":{"ha":203,"x_min":0,"x_max":0,"o":""},"∏":{"ha":203,"x_min":0,"x_max":0,"o":""},"∑":{"ha":203,"x_min":0,"x_max":0,"o":""},"−":{"ha":203,"x_min":0,"x_max":0,"o":""},"√":{"ha":203,"x_min":0,"x_max":0,"o":""},"∞":{"ha":203,"x_min":0,"x_max":0,"o":""},"∫":{"ha":203,"x_min":0,"x_max":0,"o":""},"≈":{"ha":203,"x_min":0,"x_max":0,"o":""},"≤":{"ha":203,"x_min":0,"x_max":0,"o":""},"≥":{"ha":203,"x_min":0,"x_max":0,"o":""},"":{"ha":203,"x_min":0,"x_max":0,"o":""},"":{"ha":203,"x_min":0,"x_max":0,"o":""},"Ą":{"ha":1448,"x_min":0,"x_max":0,"o":""},"ą":{"ha":1448,"x_min":0,"x_max":0,"o":""},"Ć":{"ha":1246,"x_min":0,"x_max":0,"o":""},"ć":{"ha":1246,"x_min":0,"x_max":0,"o":""},"Ę":{"ha":1052,"x_min":0,"x_max":0,"o":""},"ę":{"ha":1052,"x_min":0,"x_max":0,"o":""},"Ł":{"ha":1006,"x_min":0,"x_max":0,"o":""},"ł":{"ha":1006,"x_min":0,"x_max":0,"o":""},"Ń":{"ha":1378,"x_min":0,"x_max":0,"o":""},"ń":{"ha":1378,"x_min":0,"x_max":0,"o":""},"Œ":{"ha":1994,"x_min":0,"x_max":0,"o":""},"œ":{"ha":1994,"x_min":0,"x_max":0,"o":""},"Ż":{"ha":1155,"x_min":0,"x_max":0,"o":""},"ż":{"ha":1155,"x_min":0,"x_max":0,"o":""},"Ź":{"ha":1155,"x_min":0,"x_max":0,"o":""},"ź":{"ha":1155,"x_min":0,"x_max":0,"o":""},"Ň":{"ha":1378,"x_min":0,"x_max":0,"o":""},"ň":{"ha":1378,"x_min":0,"x_max":0,"o":""},"Ř":{"ha":1216,"x_min":0,"x_max":0,"o":""},"ř":{"ha":1216,"x_min":0,"x_max":0,"o":""},"Š":{"ha":1044,"x_min":0,"x_max":0,"o":""},"š":{"ha":1044,"x_min":0,"x_max":0,"o":""},"Ť":{"ha":1135,"x_min":0,"x_max":0,"o":""},"Ž":{"ha":1155,"x_min":0,"x_max":0,"o":""},"ž":{"ha":1155,"x_min":0,"x_max":0,"o":""},"ť":{"ha":1135,"x_min":0,"x_max":0,"o":""},"Ś":{"ha":1044,"x_min":0,"x_max":0,"o":""},"ś":{"ha":1044,"x_min":0,"x_max":0,"o":""}}}
